<mxfile host="app.diagrams.net" modified="2024-04-14T09:44:21.623Z" agent="Mozilla/5.0 (Windows NT 10.0; Win64; x64) AppleWebKit/537.36 (KHTML, like Gecko) Chrome/121.0.0.0 Safari/537.36" etag="M3rpWvSP6RtEM9oetG3r" version="24.2.5" type="device">
  <diagram name="Strona-1" id="QqAngXBsArkh3QYTsgaS">
    <mxGraphModel dx="1050" dy="530" grid="1" gridSize="10" guides="1" tooltips="1" connect="1" arrows="1" fold="1" page="1" pageScale="1" pageWidth="827" pageHeight="1169" math="0" shadow="0">
      <root>
        <mxCell id="0" />
        <mxCell id="1" parent="0" />
        <mxCell id="wBD9LIzbe9RnJMGuFPjX-1" value="" style="rounded=0;whiteSpace=wrap;html=1;" vertex="1" parent="1">
          <mxGeometry x="210" y="10" width="430" height="500" as="geometry" />
        </mxCell>
        <mxCell id="wBD9LIzbe9RnJMGuFPjX-3" value="Wyszukaj" style="rounded=0;whiteSpace=wrap;html=1;" vertex="1" parent="1">
          <mxGeometry x="320" y="20" width="220" height="30" as="geometry" />
        </mxCell>
        <mxCell id="wBD9LIzbe9RnJMGuFPjX-4" value="" style="endArrow=none;html=1;rounded=0;entryX=0.999;entryY=0.107;entryDx=0;entryDy=0;entryPerimeter=0;exitX=0;exitY=0.112;exitDx=0;exitDy=0;exitPerimeter=0;" edge="1" parent="1" source="wBD9LIzbe9RnJMGuFPjX-1" target="wBD9LIzbe9RnJMGuFPjX-1">
          <mxGeometry width="50" height="50" relative="1" as="geometry">
            <mxPoint x="210" y="100" as="sourcePoint" />
            <mxPoint x="260" y="50" as="targetPoint" />
          </mxGeometry>
        </mxCell>
        <mxCell id="wBD9LIzbe9RnJMGuFPjX-5" value="Logo" style="rounded=0;whiteSpace=wrap;html=1;" vertex="1" parent="1">
          <mxGeometry x="230" y="20" width="60" height="30" as="geometry" />
        </mxCell>
        <mxCell id="wBD9LIzbe9RnJMGuFPjX-6" value="" style="endArrow=none;html=1;rounded=0;entryX=1.005;entryY=0.166;entryDx=0;entryDy=0;entryPerimeter=0;exitX=0.004;exitY=0.165;exitDx=0;exitDy=0;exitPerimeter=0;" edge="1" parent="1" source="wBD9LIzbe9RnJMGuFPjX-1" target="wBD9LIzbe9RnJMGuFPjX-1">
          <mxGeometry width="50" height="50" relative="1" as="geometry">
            <mxPoint x="210" y="90" as="sourcePoint" />
            <mxPoint x="440" y="250" as="targetPoint" />
          </mxGeometry>
        </mxCell>
        <mxCell id="wBD9LIzbe9RnJMGuFPjX-7" value="" style="endArrow=none;html=1;rounded=0;exitX=0;exitY=0.478;exitDx=0;exitDy=0;exitPerimeter=0;entryX=1.003;entryY=0.478;entryDx=0;entryDy=0;entryPerimeter=0;" edge="1" parent="1" source="wBD9LIzbe9RnJMGuFPjX-1" target="wBD9LIzbe9RnJMGuFPjX-1">
          <mxGeometry width="50" height="50" relative="1" as="geometry">
            <mxPoint x="390" y="300" as="sourcePoint" />
            <mxPoint x="440" y="250" as="targetPoint" />
          </mxGeometry>
        </mxCell>
        <mxCell id="wBD9LIzbe9RnJMGuFPjX-13" value="Kat A" style="rounded=0;whiteSpace=wrap;html=1;" vertex="1" parent="1">
          <mxGeometry x="230" y="70" width="40" height="20" as="geometry" />
        </mxCell>
        <mxCell id="wBD9LIzbe9RnJMGuFPjX-14" value="Kat B" style="rounded=0;whiteSpace=wrap;html=1;" vertex="1" parent="1">
          <mxGeometry x="300" y="70" width="40" height="20" as="geometry" />
        </mxCell>
        <mxCell id="wBD9LIzbe9RnJMGuFPjX-15" value="Kat C" style="rounded=0;whiteSpace=wrap;html=1;" vertex="1" parent="1">
          <mxGeometry x="375" y="70" width="40" height="20" as="geometry" />
        </mxCell>
        <mxCell id="wBD9LIzbe9RnJMGuFPjX-16" value="Kat D" style="rounded=0;whiteSpace=wrap;html=1;" vertex="1" parent="1">
          <mxGeometry x="440" y="70" width="40" height="20" as="geometry" />
        </mxCell>
        <mxCell id="wBD9LIzbe9RnJMGuFPjX-17" value="Kat E" style="rounded=0;whiteSpace=wrap;html=1;" vertex="1" parent="1">
          <mxGeometry x="510" y="70" width="40" height="20" as="geometry" />
        </mxCell>
        <mxCell id="wBD9LIzbe9RnJMGuFPjX-18" value="Kat F" style="rounded=0;whiteSpace=wrap;html=1;" vertex="1" parent="1">
          <mxGeometry x="580" y="70" width="40" height="20" as="geometry" />
        </mxCell>
        <mxCell id="wBD9LIzbe9RnJMGuFPjX-19" value="Ostatnio ocenione" style="rounded=1;whiteSpace=wrap;html=1;" vertex="1" parent="1">
          <mxGeometry x="330" y="260" width="190" height="30" as="geometry" />
        </mxCell>
        <mxCell id="wBD9LIzbe9RnJMGuFPjX-20" value="" style="whiteSpace=wrap;html=1;aspect=fixed;" vertex="1" parent="1">
          <mxGeometry x="225" y="300" width="70" height="70" as="geometry" />
        </mxCell>
        <mxCell id="wBD9LIzbe9RnJMGuFPjX-23" value="" style="rounded=0;whiteSpace=wrap;html=1;" vertex="1" parent="1">
          <mxGeometry x="210" y="220" width="430" height="30" as="geometry" />
        </mxCell>
        <mxCell id="wBD9LIzbe9RnJMGuFPjX-24" value="Zdjęcie Profilowe" style="ellipse;whiteSpace=wrap;html=1;aspect=fixed;" vertex="1" parent="1">
          <mxGeometry x="240" y="110" width="80" height="80" as="geometry" />
        </mxCell>
        <mxCell id="wBD9LIzbe9RnJMGuFPjX-25" value="Nazwa Użytkownika" style="rounded=0;whiteSpace=wrap;html=1;" vertex="1" parent="1">
          <mxGeometry x="340" y="110" width="120" height="30" as="geometry" />
        </mxCell>
        <mxCell id="wBD9LIzbe9RnJMGuFPjX-26" value="Zdjęcie Profilowe" style="ellipse;whiteSpace=wrap;html=1;aspect=fixed;" vertex="1" parent="1">
          <mxGeometry x="580" y="15" width="40" height="40" as="geometry" />
        </mxCell>
        <mxCell id="wBD9LIzbe9RnJMGuFPjX-28" value="Oceny ...." style="rounded=0;whiteSpace=wrap;html=1;" vertex="1" parent="1">
          <mxGeometry x="265" y="225" width="110" height="20" as="geometry" />
        </mxCell>
        <mxCell id="wBD9LIzbe9RnJMGuFPjX-33" value="Ulubione ..." style="rounded=0;whiteSpace=wrap;html=1;" vertex="1" parent="1">
          <mxGeometry x="475" y="225" width="110" height="20" as="geometry" />
        </mxCell>
        <mxCell id="wBD9LIzbe9RnJMGuFPjX-34" style="edgeStyle=orthogonalEdgeStyle;rounded=0;orthogonalLoop=1;jettySize=auto;html=1;exitX=0.5;exitY=1;exitDx=0;exitDy=0;" edge="1" parent="1">
          <mxGeometry relative="1" as="geometry">
            <mxPoint x="425" y="245" as="sourcePoint" />
            <mxPoint x="425" y="245" as="targetPoint" />
          </mxGeometry>
        </mxCell>
        <mxCell id="wBD9LIzbe9RnJMGuFPjX-35" value="" style="whiteSpace=wrap;html=1;aspect=fixed;" vertex="1" parent="1">
          <mxGeometry x="330" y="300" width="70" height="70" as="geometry" />
        </mxCell>
        <mxCell id="wBD9LIzbe9RnJMGuFPjX-36" value="" style="whiteSpace=wrap;html=1;aspect=fixed;" vertex="1" parent="1">
          <mxGeometry x="440" y="300" width="70" height="70" as="geometry" />
        </mxCell>
        <mxCell id="wBD9LIzbe9RnJMGuFPjX-37" value="" style="whiteSpace=wrap;html=1;aspect=fixed;" vertex="1" parent="1">
          <mxGeometry x="550" y="300" width="70" height="70" as="geometry" />
        </mxCell>
        <mxCell id="wBD9LIzbe9RnJMGuFPjX-38" value="Rekomendacje" style="rounded=0;whiteSpace=wrap;html=1;" vertex="1" parent="1">
          <mxGeometry x="210" y="380" width="430" height="20" as="geometry" />
        </mxCell>
        <mxCell id="wBD9LIzbe9RnJMGuFPjX-39" value="" style="whiteSpace=wrap;html=1;aspect=fixed;" vertex="1" parent="1">
          <mxGeometry x="225" y="410" width="70" height="70" as="geometry" />
        </mxCell>
        <mxCell id="wBD9LIzbe9RnJMGuFPjX-40" value="" style="whiteSpace=wrap;html=1;aspect=fixed;" vertex="1" parent="1">
          <mxGeometry x="330" y="410" width="70" height="70" as="geometry" />
        </mxCell>
        <mxCell id="wBD9LIzbe9RnJMGuFPjX-41" value="" style="whiteSpace=wrap;html=1;aspect=fixed;" vertex="1" parent="1">
          <mxGeometry x="440" y="410" width="70" height="70" as="geometry" />
        </mxCell>
        <mxCell id="wBD9LIzbe9RnJMGuFPjX-42" value="" style="whiteSpace=wrap;html=1;aspect=fixed;" vertex="1" parent="1">
          <mxGeometry x="550" y="410" width="70" height="70" as="geometry" />
        </mxCell>
        <mxCell id="wBD9LIzbe9RnJMGuFPjX-46" value="Imię Nazwisko" style="rounded=0;whiteSpace=wrap;html=1;" vertex="1" parent="1">
          <mxGeometry x="340" y="150" width="120" height="30" as="geometry" />
        </mxCell>
        <mxCell id="wBD9LIzbe9RnJMGuFPjX-47" style="edgeStyle=orthogonalEdgeStyle;rounded=0;orthogonalLoop=1;jettySize=auto;html=1;exitX=0.5;exitY=0;exitDx=0;exitDy=0;entryX=0.75;entryY=0;entryDx=0;entryDy=0;" edge="1" parent="1" source="wBD9LIzbe9RnJMGuFPjX-28" target="wBD9LIzbe9RnJMGuFPjX-28">
          <mxGeometry relative="1" as="geometry" />
        </mxCell>
      </root>
    </mxGraphModel>
  </diagram>
</mxfile>
